<svg width="75" height="105" viewBox="0 0 75 105" xmlns="http://www.w3.org/2000/svg"><title>logo-loveknitting</title><g fill="#E8503C" fill-rule="evenodd"><path d="M72.3 48.7c-.3 2.1-.9 4.3-1.6 6.5-7.4 9.9-16.6 18.6-27.2 25.5-.8-.4-1.6-.9-2.4-1.4 12.4-8.4 23.1-19.2 31.4-32 0 .6-.1 1-.2 1.4zM47.7 83.1c-.8-.4-1.6-.9-2.4-1.3 8.9-6 16.9-13.2 23.7-21.5-1 2.7-2.1 5.3-3.3 7.9-5.4 5.5-11.4 10.5-18 14.9zm10.3 0c-1 1.8-1.8 3.2-2.3 4-.5-.2-1.2-.5-2-.9 1.5-1 2.9-2.1 4.3-3.1zm2.2-3.9c-2.6 2.1-5.4 4.1-8.2 6-.8-.4-1.6-.8-2.5-1.3 5-3.3 9.7-7.1 14.1-11.2-1.2 2.4-2.4 4.6-3.4 6.5zM31.3 36.5c8.2 4.5 16 10.2 23 17-.4.5-.8.9-1.2 1.4-8-7.3-17-13.4-26.5-18h.1c1.5-.5 3-.6 4.6-.4zm11.5 2.2c-.1.9-.2 1.9-.3 2.8-.2-.2-.5-.3-.7-.5l.5-1.2c.2-.3.3-.7.5-1.1zm2.4-4c1-1.4 2.2-2.7 3.6-3.8-.9 4.6-1.6 9.2-1.9 13.9-.9-.7-1.7-1.4-2.6-2 .1-2.8.4-5.5.9-8.1zm8.8-6c-1.6 6.5-2.5 13-2.9 19.6-.9-.8-1.7-1.5-2.6-2.2.4-5.5 1.1-11 2.3-16.4.4-.2.9-.4 1.3-.5.7-.2 1.3-.4 1.9-.5zm13.6 3.9L67 35c-1.3 2.5-2.8 4.9-4.3 7.2.6-3.9 1.4-7.7 2.3-11.4.9.5 1.8 1.1 2.6 1.8zm-7-3.7c1 .2 1.9.6 2.8 1-1.3 5.1-2.3 10.3-2.9 15.6-1 1.5-2.1 2.9-3.2 4.3.4-7.1 1.6-14.1 3.3-20.9zm-5.2 23.2s0 .1 0 0c-.9-.8-1.8-1.6-2.6-2.4.3-7.2 1.4-14.3 3.1-21.3 1-.1 2 0 3 .1-2 7.9-3.2 15.7-3.5 23.6zm13.5-17c.1-.2.2-.5.4-.7.7.9 1.3 1.8 1.8 2.8C62.7 52.6 50.6 66 35.6 76c-.7-.5-1.5-1-2.2-1.4 14.7-10 26.9-23.4 35.5-39.5zM34.6 71.7l-2.1 1.5c-1.4-.8-2.9-1.6-4.4-2.3-2.6-2-5-4-6.9-6.1 4.6 2 9.1 4.3 13.4 6.9zm3.5-2.6c-.6.5-1.3 1-1.9 1.5-5.7-3.5-11.6-6.4-17.8-8.8-.8-1.1-1.5-2.3-2-3.6 7.5 2.7 14.8 6.4 21.7 10.9zm3.1-2.6L39.4 68C32 63 24 59 15.7 56c-.2-1-.4-2-.4-3 9 3.2 17.8 7.8 25.9 13.5zm3-2.6c-.5.5-1.1 1-1.6 1.4-8.4-6-17.6-10.8-27.3-14.3.1-.9.2-1.8.4-2.7 10 3.8 19.7 8.9 28.5 15.6zM21.7 39.3c.8-.6 1.7-1.2 2.7-1.6 9.9 4.6 19.2 10.7 27.7 18.4-.4.5-.8.9-1.3 1.4-8.9-7.6-18.7-13.7-29.1-18.2zm27.9 19.4l-1.4 1.4c-9.1-7.4-19.1-13.2-29.9-17.4.6-.8 1.2-1.5 1.8-2.1C30.7 45 40.6 51 49.6 58.7zM17.3 44.2c10.5 4 20.5 9.7 29.6 17.1-.5.5-1 1-1.5 1.4-9-6.8-18.8-12.2-29.3-16.1l1.2-2.4zm54.9-4.3c.4 1.3.6 2.6.7 3.9-8.3 13.7-19.6 25.6-33.3 34.7-.8-.5-1.5-.9-2.3-1.4C51.5 67.5 63.4 54.7 72 39.3c0 .2.1.4.2.6zM51.5 27.1c-2.6.8-7.2 3.2-10.7 10.8-7-4.4-12.2-3.9-14.8-3.1-9.6 2.9-15 13.1-12.1 22.7 1 3.2 2.8 6.1 5.3 8.3 4.8 5.1 12.3 10.6 22.5 16.4 7.6 4.3 13.9 7.2 13.9 7.2l.8.4.6-.8c0-.1 3.7-5.9 7.6-13.7 5.3-10.5 8.6-19.3 9.7-26.1.9-3.2.8-6.6-.2-9.9-2.8-9.6-13-15.1-22.6-12.2z"/><path d="M53.2 96.9c-.4-2.2-1.4-5.6-2-7.7L49.9 85c-1.1-.3-2.4-.6-3.7-.9l2 6c.7 2.1 2 5.4 2.9 7.4l2.6 5.8c.9 2 1.3 1.9.8-.3l-1.3-6.1zM72 95l-3.7-5.2c-1.3-1.8-3.5-4.6-4.9-6.3L61.2 81c-.7.9-1.5 1.7-2.1 2.4l2 2.2c1.5 1.6 4 4.2 5.6 5.7l4.7 4.3c1.6 1.4 1.9 1.2.6-.6zM36.7 53.2L9.8 22.7c1.2-1.9 1-4.4-.6-6.2-1.9-2.2-5.2-2.4-7.4-.5s-2.4 5.3-.5 7.4c1.6 1.8 4 2.2 6.1 1.3L28 48.1c2.3 1.3 5.6 3.2 8.7 5.1z"/><path d="M22.1 10.5l13.7 42.1c1.5.9 2.9 1.7 4.2 2.5L25.1 9.6c1.8-1.3 2.7-3.7 1.9-5.9C26.1.9 23.1-.6 20.4.3c-2.8.9-4.3 3.9-3.4 6.6.8 2.2 2.9 3.7 5.1 3.6"/></g></svg>